<svg width="41" height="41" viewBox="0 0 41 41" fill="none" xmlns="http://www.w3.org/2000/svg">
<path d="M16.419 31.8981L11.6065 27.5669C11.1536 27.1592 10.9271 26.6667 10.9271 26.0892C10.9271 25.5117 11.1536 25.0191 11.6065 24.6115C12.0595 24.2038 12.6068 24 13.2484 24C13.8901 24 14.4374 24.2038 14.8903 24.6115L18.0042 27.414L25.874 20.3312C26.327 19.9236 26.8743 19.7197 27.5159 19.7197C28.1576 19.7197 28.7049 19.9236 29.1578 20.3312C29.6108 20.7389 29.8372 21.2314 29.8372 21.8089C29.8372 22.3864 29.6108 22.879 29.1578 23.2866L19.5895 31.8981C19.1743 32.2718 18.6459 32.4586 18.0042 32.4586C17.3626 32.4586 16.8342 32.2718 16.419 31.8981ZM4.52937 40.7643C3.2838 40.7643 2.21713 40.3648 1.32937 39.5659C0.441617 38.7669 -0.00150594 37.8076 3.84497e-06 36.6879V8.15287C3.84497e-06 7.03185 0.443882 6.07185 1.33164 5.27287C2.21939 4.47389 3.28531 4.07508 4.52937 4.07644H6.79406V2.03822C6.79406 1.46073 7.01147 0.976312 7.44629 0.584975C7.88111 0.193637 8.41859 -0.00135176 9.05874 7.05266e-06C9.7004 7.05266e-06 10.2386 0.195676 10.6735 0.587013C11.1083 0.978351 11.3249 1.46209 11.3234 2.03822V4.07644H29.4409V2.03822C29.4409 1.46073 29.6583 0.976312 30.0931 0.584975C30.528 0.193637 31.0654 -0.00135176 31.7056 7.05266e-06C32.3473 7.05266e-06 32.8855 0.195676 33.3203 0.587013C33.7551 0.978351 33.9718 1.46209 33.9703 2.03822V4.07644H36.235C37.4805 4.07644 38.5472 4.47593 39.435 5.27491C40.3227 6.07389 40.7658 7.03321 40.7643 8.15287V36.6879C40.7643 37.8089 40.3205 38.7689 39.4327 39.5679C38.5449 40.3669 37.479 40.7657 36.235 40.7643H4.52937ZM4.52937 36.6879H36.235V16.3057H4.52937V36.6879Z" fill="#FFD60A"/>
</svg>
