<svg width="41" height="41" viewBox="0 0 41 41" fill="none" xmlns="http://www.w3.org/2000/svg">
<path d="M38.8259 19.2573L33.5067 16.1711C38.6318 11.8037 33.4873 3.65119 27.3334 6.42691L25.6445 7.1451L25.431 5.28168C25.2368 3.18533 24.1497 1.69071 22.7131 0.817234C19.5294 -1.0326 14.6762 0.234915 13.8997 4.85465L8.56111 1.78777C6.69746 0.700771 4.32909 1.34132 3.26137 3.20474L1.32008 6.56278C0.776518 7.49449 1.10654 8.67854 2.03836 9.22204L17.161 17.9568L20.073 12.9101L23.4314 14.8511L20.5195 19.8979L35.6422 28.6327C36.574 29.1179 37.7776 28.8462 38.3017 27.9145L40.243 24.5564C41.3107 22.693 40.6895 20.3249 38.8259 19.2573ZM20.1312 7.76624C18.4423 8.25151 17.0834 6.44632 17.9376 4.9517C18.4423 4.01999 19.6653 3.70942 20.5971 4.23351C22.0919 5.10699 21.8007 7.35862 20.1312 7.76624ZM30.2065 13.5894C28.537 14.0747 27.1781 12.2695 28.0323 10.7749C28.5564 9.84318 29.76 9.53261 30.6724 10.0567C32.1672 10.9302 31.876 13.1818 30.2065 13.5894ZM36.6322 30.8261C37.4281 30.8261 38.1853 30.5543 38.8259 30.0885V36.8822C38.8259 39.0368 37.0981 40.7643 34.9433 40.7643H3.88259C2.85286 40.7643 1.86531 40.3553 1.13718 39.6273C0.409057 38.8992 0 37.9118 0 36.8822V19.4126H15.8215L17.4716 20.3832V36.8822H21.3542V22.6154L34.6909 30.302C35.2733 30.6514 35.9139 30.8261 36.6322 30.8261Z" fill="#08E646"/>
</svg>
