<svg width="41" height="41" viewBox="0 0 41 41" fill="none" xmlns="http://www.w3.org/2000/svg">
<path d="M34.9409 15.2866C36.4847 15.2844 37.9649 14.5679 39.0565 13.2942C40.1482 12.0206 40.7624 10.2938 40.7643 8.49257V3.39703H36.3967C34.9061 3.3996 33.4737 4.07243 32.3975 5.27558C31.6432 3.67902 30.536 2.34752 29.191 1.41968C27.8459 0.491846 26.3123 0.00160653 24.7498 0H20.3822V5.09554C20.3849 7.79742 21.306 10.3877 22.9436 12.2983C24.5812 14.2088 26.8015 15.2835 29.1174 15.2866H30.5732V37.3673H13.1028V28.8747H14.5587C16.1026 28.8725 17.5827 28.156 18.6744 26.8823C19.7661 25.6087 20.3802 23.8819 20.3822 22.0807V16.9851H16.0146C14.524 16.9877 13.0916 17.6605 12.0153 18.8637C11.2611 17.2671 10.1538 15.9356 8.8088 15.0078C7.46378 14.08 5.93016 13.5897 4.36761 13.5881H0V18.6837C0.00269716 21.3855 0.923878 23.9758 2.56146 25.8864C4.19905 27.7969 6.41932 28.8716 8.73521 28.8747H10.1911V37.3673H0V40.7643H40.7643V37.3673H33.485V15.2866H34.9409ZM33.485 10.1911C33.4858 9.29041 33.7928 8.42689 34.3387 7.79002C34.8846 7.15314 35.6247 6.79495 36.3967 6.79406H37.8526V8.49257C37.8518 9.39324 37.5448 10.2568 36.9989 10.8936C36.453 11.5305 35.7129 11.8887 34.9409 11.8896H33.485V10.1911ZM13.1028 23.7792C13.1036 22.8785 13.4106 22.015 13.9565 21.3781C14.5024 20.7413 15.2426 20.3831 16.0146 20.3822H17.4704V22.0807C17.4697 22.9814 17.1626 23.8449 16.6167 24.4818C16.0709 25.1186 15.3307 25.4768 14.5587 25.4777H13.1028V23.7792ZM10.1911 25.4777H8.73521C7.19132 25.4755 5.71122 24.7589 4.61952 23.4853C3.52783 22.2116 2.91366 20.4849 2.91174 18.6837V16.9851H4.36761C5.9115 16.9874 7.3916 17.7039 8.4833 18.9776C9.575 20.2512 10.1892 21.978 10.1911 23.7792V25.4777ZM30.5732 11.8896H29.1174C27.5735 11.8874 26.0934 11.1708 25.0017 9.89718C23.91 8.62354 23.2958 6.89675 23.2939 5.09554V3.39703H24.7498C26.2937 3.39928 27.7738 4.1158 28.8655 5.38944C29.9572 6.66309 30.5713 8.38988 30.5732 10.1911V11.8896Z" fill="#FFAF56"/>
</svg>
