<svg width="41" height="41" viewBox="0 0 41 41" fill="none" xmlns="http://www.w3.org/2000/svg">
<path d="M7.27934 0C5.34874 0 3.49721 1.0737 2.13207 2.9849C0.766929 4.8961 0 7.48824 0 10.1911V12.2293H40.7643V10.1911C40.7643 7.48824 39.9974 4.8961 38.6323 2.9849C37.2671 1.0737 35.4156 0 33.485 0H7.27934ZM40.7643 16.3057H0V30.5732C0 33.2761 0.766929 35.8682 2.13207 37.7794C3.49721 39.6906 5.34874 40.7643 7.27934 40.7643H33.485C35.4156 40.7643 37.2671 39.6906 38.6323 37.7794C39.9974 35.8682 40.7643 33.2761 40.7643 30.5732V16.3057ZM27.6615 28.535H33.485C33.8711 28.535 34.2414 28.7498 34.5144 29.132C34.7875 29.5143 34.9409 30.0327 34.9409 30.5732C34.9409 31.1138 34.7875 31.6322 34.5144 32.0145C34.2414 32.3967 33.8711 32.6115 33.485 32.6115H27.6615C27.2754 32.6115 26.9051 32.3967 26.6321 32.0145C26.359 31.6322 26.2056 31.1138 26.2056 30.5732C26.2056 30.0327 26.359 29.5143 26.6321 29.132C26.9051 28.7498 27.2754 28.535 27.6615 28.535Z" fill="#222B88"/>
</svg>
