<svg width="205" height="62" viewBox="0 0 205 62" fill="none" xmlns="http://www.w3.org/2000/svg">
<rect x="1.13037" y="1" width="203" height="60" rx="8" fill="white" stroke="#CFCFCF"/>
<path fill-rule="evenodd" clip-rule="evenodd" d="M52.5563 29.6321C52.5203 25.3361 56.0723 23.2481 56.2283 23.1521C54.2123 20.2241 51.0923 19.8161 50.0003 19.7801C47.3843 19.5041 44.8403 21.3521 43.5083 21.3521C42.1523 21.3521 40.0883 19.8161 37.8803 19.8521C35.0363 19.9001 32.3603 21.5441 30.9083 24.1121C27.8963 29.3321 30.1403 37.0121 33.0323 41.2361C34.4843 43.3001 36.1643 45.6161 38.3843 45.5321C40.5443 45.4481 41.3603 44.1521 43.9643 44.1521C46.5563 44.1521 47.3123 45.5321 49.5683 45.4841C51.8963 45.4481 53.3483 43.4081 54.7523 41.3201C56.4203 38.9561 57.0923 36.6161 57.1163 36.4961C57.0563 36.4721 52.6043 34.7681 52.5563 29.6321Z" fill="black"/>
<path fill-rule="evenodd" clip-rule="evenodd" d="M48.2962 17.0081C49.4602 15.5561 50.2522 13.5761 50.0362 11.5601C48.3562 11.6321 46.2442 12.7241 45.0322 14.1521C43.9642 15.4121 43.0042 17.4641 43.2442 19.3961C45.1402 19.5401 47.0842 18.4361 48.2962 17.0081Z" fill="black"/>
<path fill-rule="evenodd" clip-rule="evenodd" d="M78.7284 37.84L77.2284 33.22C77.0724 32.74 76.7724 31.636 76.3404 29.884H76.2804C76.1004 30.64 75.8244 31.756 75.4404 33.22L73.9644 37.84H78.7284ZM83.9002 45.2321H80.8762L79.2202 40.0241H73.4602L71.8882 45.2321H68.9482L74.6482 27.5081H78.1762L83.9002 45.2321Z" fill="black"/>
<path fill-rule="evenodd" clip-rule="evenodd" d="M95.6602 38.788C95.6602 37.54 95.3842 36.52 94.8202 35.716C94.2082 34.876 93.3802 34.456 92.3482 34.456C91.6522 34.456 91.0162 34.696 90.4402 35.152C89.8762 35.62 89.4922 36.22 89.3242 36.976C89.2402 37.324 89.1922 37.612 89.1922 37.84V39.976C89.1922 40.9 89.4802 41.692 90.0442 42.328C90.6082 42.964 91.3522 43.288 92.2642 43.288C93.3322 43.288 94.1602 42.868 94.7602 42.052C95.3602 41.224 95.6602 40.144 95.6602 38.788ZM98.5522 38.692C98.5522 40.864 97.9642 42.58 96.7762 43.84C95.7202 44.968 94.4002 45.52 92.8402 45.52C91.1482 45.52 89.9362 44.92 89.1922 43.708V50.416H86.3482V36.652C86.3482 35.284 86.3122 33.892 86.2402 32.452H88.7362L88.8922 34.48H88.9402C89.8882 32.956 91.3282 32.188 93.2482 32.188C94.7602 32.188 96.0082 32.788 97.0162 33.976C98.0482 35.176 98.5522 36.736 98.5522 38.692Z" fill="black"/>
<path fill-rule="evenodd" clip-rule="evenodd" d="M110.348 38.788C110.348 37.54 110.072 36.52 109.508 35.716C108.896 34.876 108.068 34.456 107.036 34.456C106.34 34.456 105.704 34.696 105.128 35.152C104.564 35.62 104.192 36.22 104.012 36.976C103.928 37.324 103.88 37.612 103.88 37.84V39.976C103.88 40.9 104.168 41.692 104.732 42.328C105.296 42.964 106.04 43.288 106.952 43.288C108.02 43.288 108.86 42.868 109.448 42.052C110.06 41.224 110.348 40.144 110.348 38.788ZM113.24 38.692C113.24 40.864 112.652 42.58 111.464 43.84C110.408 44.968 109.088 45.52 107.528 45.52C105.836 45.52 104.624 44.92 103.88 43.708V50.416H101.036V36.652C101.036 35.284 101 33.892 100.928 32.452H103.424L103.58 34.48H103.628C104.576 32.956 106.016 32.188 107.936 32.188C109.448 32.188 110.696 32.788 111.704 33.976C112.736 35.176 113.24 36.736 113.24 38.692Z" fill="black"/>
<path fill-rule="evenodd" clip-rule="evenodd" d="M129.68 40.2641C129.68 41.7761 129.152 43.0001 128.108 43.9481C126.956 44.9801 125.348 45.4961 123.284 45.4961C121.376 45.4961 119.852 45.1241 118.7 44.3921L119.36 42.0281C120.608 42.7601 121.976 43.1321 123.464 43.1321C124.532 43.1321 125.372 42.8921 125.96 42.4121C126.56 41.9321 126.86 41.2841 126.86 40.4801C126.86 39.7601 126.608 39.1601 126.128 38.6681C125.636 38.1761 124.82 37.7201 123.68 37.3001C120.548 36.1361 119 34.4441 119 32.2241C119 30.7721 119.552 29.5841 120.644 28.6481C121.736 27.7241 123.188 27.2561 125 27.2561C126.608 27.2561 127.952 27.5321 129.02 28.0961L128.3 30.4001C127.292 29.8601 126.164 29.5841 124.892 29.5841C123.896 29.5841 123.104 29.8361 122.54 30.3161C122.072 30.7601 121.832 31.2881 121.832 31.9241C121.832 32.6201 122.108 33.2081 122.648 33.6521C123.116 34.0721 123.98 34.5281 125.228 35.0201C126.752 35.6321 127.868 36.3521 128.588 37.1801C129.32 38.0081 129.68 39.0401 129.68 40.2641Z" fill="black"/>
<path fill-rule="evenodd" clip-rule="evenodd" d="M139.089 34.588H135.957V40.792C135.957 42.364 136.509 43.156 137.613 43.156C138.117 43.156 138.536 43.108 138.872 43.024L138.957 45.184C138.392 45.388 137.661 45.496 136.748 45.496C135.62 45.496 134.757 45.148 134.121 44.464C133.485 43.78 133.173 42.628 133.173 41.02V34.576H131.312V32.452H133.173V30.112L135.957 29.272V32.452H139.089V34.588Z" fill="black"/>
<path fill-rule="evenodd" clip-rule="evenodd" d="M150.237 38.8C150.237 37.624 149.985 36.628 149.481 35.788C148.881 34.768 148.029 34.264 146.925 34.264C145.785 34.264 144.909 34.768 144.321 35.788C143.805 36.628 143.565 37.648 143.565 38.86C143.565 40.036 143.817 41.044 144.321 41.872C144.933 42.892 145.797 43.396 146.901 43.396C147.981 43.396 148.833 42.88 149.457 41.848C149.973 40.984 150.237 39.976 150.237 38.8ZM153.177 38.74C153.177 40.708 152.613 42.316 151.497 43.576C150.321 44.872 148.761 45.52 146.817 45.52C144.945 45.52 143.445 44.896 142.329 43.66C141.213 42.424 140.661 40.852 140.661 38.956C140.661 36.976 141.237 35.356 142.377 34.096C143.529 32.836 145.077 32.2 147.021 32.2C148.893 32.2 150.405 32.824 151.545 34.072C152.637 35.272 153.177 36.832 153.177 38.74Z" fill="black"/>
<path fill-rule="evenodd" clip-rule="evenodd" d="M162.416 34.948C162.14 34.9 161.84 34.876 161.516 34.876C160.52 34.876 159.74 35.248 159.2 36.004C158.732 36.664 158.492 37.516 158.492 38.524V45.232H155.648V36.472C155.648 34.996 155.624 33.652 155.564 32.452H158.036L158.144 34.9H158.228C158.528 34.06 158.996 33.376 159.644 32.872C160.28 32.416 160.964 32.188 161.696 32.188C161.96 32.188 162.2 32.212 162.404 32.236L162.416 34.948Z" fill="black"/>
<path fill-rule="evenodd" clip-rule="evenodd" d="M172.4 37.5039C172.424 36.6639 172.232 35.9319 171.848 35.3199C171.357 34.5279 170.6 34.1319 169.593 34.1319C168.669 34.1319 167.913 34.5159 167.337 35.2839C166.869 35.8959 166.581 36.6399 166.496 37.4919L172.4 37.5039ZM175.112 38.2359C175.112 38.7399 175.077 39.1719 175.005 39.5199H166.484C166.52 40.7799 166.928 41.7519 167.72 42.4119C168.44 42.9999 169.364 43.2999 170.504 43.2999C171.764 43.2999 172.917 43.0959 173.948 42.6999L174.393 44.6679C173.181 45.1959 171.752 45.4599 170.108 45.4599C168.128 45.4599 166.569 44.8719 165.44 43.7079C164.313 42.5439 163.749 40.9719 163.749 39.0159C163.749 37.0959 164.276 35.4879 165.332 34.2039C166.437 32.8359 167.925 32.1519 169.796 32.1519C171.632 32.1519 173.036 32.8359 173.972 34.2039C174.729 35.3079 175.112 36.6399 175.112 38.2359Z" fill="black"/>
<path fill-rule="evenodd" clip-rule="evenodd" d="M74.8044 17.536L74.0724 15.256C74.0004 15.028 73.8564 14.476 73.6284 13.612H73.6044C73.5084 13.984 73.3884 14.524 73.1844 15.256L72.4644 17.536H74.8044ZM77.3604 21.172H75.8724L75.0564 18.616H72.2244L71.4444 21.172H70.0044L72.8004 12.46H74.5284L77.3604 21.172Z" fill="black"/>
<path fill-rule="evenodd" clip-rule="evenodd" d="M84.3685 14.884L81.9925 21.172H80.6365L78.3325 14.884H79.8325L80.9005 18.208C81.0805 18.76 81.2365 19.288 81.3565 19.792H81.3925C81.5005 19.336 81.6565 18.808 81.8485 18.208L82.9045 14.884H84.3685Z" fill="black"/>
<path fill-rule="evenodd" clip-rule="evenodd" d="M89.2401 18.0399C87.6921 18.0399 86.9121 18.4119 86.9121 19.3119C86.9121 19.9719 87.3081 20.2959 87.8721 20.2959C88.5801 20.2959 89.2401 19.7559 89.2401 19.0119V18.0399ZM89.4322 21.1719L89.3242 20.4519H89.2882C88.8562 21.0279 88.2442 21.3159 87.4522 21.3159C86.3242 21.3159 85.5322 20.5239 85.5322 19.4679C85.5322 17.9199 86.8762 17.1159 89.2042 17.1159V16.9959C89.2042 16.1679 88.7602 15.7599 87.8962 15.7599C87.2722 15.7599 86.7322 15.9159 86.2522 16.2279L85.9642 15.3159C86.5402 14.9559 87.2722 14.7759 88.1242 14.7759C89.7682 14.7759 90.5962 15.6399 90.5962 17.3799V19.6959C90.5962 20.3319 90.6202 20.8239 90.6922 21.1959L89.4322 21.1719Z" fill="black"/>
<mask id="mask0_2_29214" style="mask-type:luminance" maskUnits="userSpaceOnUse" x="1" y="1" width="203" height="60">
<path fill-rule="evenodd" clip-rule="evenodd" d="M1.13037 61H203.63V1H1.13037V61Z" fill="white"/>
</mask>
<g mask="url(#mask0_2_29214)">
<path fill-rule="evenodd" clip-rule="evenodd" d="M93.0325 21.1601H94.4245V14.8841H93.0325V21.1601ZM93.7045 13.8521C93.2365 13.8521 92.8765 13.4921 92.8765 13.0121C92.8765 12.5321 93.2485 12.1841 93.7285 12.1841C94.2085 12.1841 94.5925 12.5321 94.5805 13.0121C94.5805 13.5161 94.2205 13.8521 93.7045 13.8521Z" fill="black"/>
<path fill-rule="evenodd" clip-rule="evenodd" d="M96.9082 21.1599H98.3002V12.0039H96.9082V21.1599Z" fill="black"/>
<path fill-rule="evenodd" clip-rule="evenodd" d="M104.037 18.0398C102.489 18.0398 101.709 18.4118 101.709 19.3118C101.709 19.9718 102.105 20.2958 102.669 20.2958C103.377 20.2958 104.037 19.7558 104.037 19.0118V18.0398ZM104.229 21.1719L104.121 20.4519H104.085C103.653 21.0279 103.041 21.3159 102.249 21.3159C101.121 21.3159 100.329 20.5239 100.329 19.4679C100.329 17.9199 101.673 17.1159 104.001 17.1159V16.9959C104.001 16.1679 103.557 15.7599 102.693 15.7599C102.069 15.7599 101.529 15.9159 101.049 16.2279L100.761 15.3039C101.337 14.9439 102.069 14.7639 102.921 14.7639C104.565 14.7639 105.393 15.6279 105.393 17.3679V19.6839C105.393 20.3199 105.417 20.8119 105.477 21.1839H104.229V21.1719Z" fill="black"/>
<path fill-rule="evenodd" clip-rule="evenodd" d="M110.768 15.8559C109.964 15.8559 109.232 16.5519 109.232 17.5239V18.6279C109.232 19.4919 109.892 20.1999 110.744 20.1999C111.788 20.1999 112.412 19.3479 112.412 17.9919C112.412 16.7199 111.764 15.8559 110.768 15.8559ZM111.056 21.3159C110.168 21.3159 109.508 20.9439 109.076 20.1999H109.052L108.968 21.1719H107.78C107.816 20.6679 107.828 20.1039 107.828 19.4799V12.0039H109.232V15.8079H109.256C109.676 15.1119 110.336 14.7639 111.26 14.7639C112.772 14.7639 113.828 16.0599 113.828 17.9439C113.828 19.8879 112.652 21.3159 111.056 21.3159Z" fill="black"/>
<path fill-rule="evenodd" clip-rule="evenodd" d="M115.893 21.1599H117.285V12.0039H115.893V21.1599Z" fill="black"/>
<path fill-rule="evenodd" clip-rule="evenodd" d="M123.608 17.368C123.608 16.396 123.116 15.712 122.228 15.712C121.424 15.712 120.8 16.408 120.704 17.368H123.608ZM124.88 18.364H120.692C120.716 19.552 121.508 20.224 122.672 20.224C123.296 20.224 123.86 20.116 124.364 19.924L124.58 20.896C123.992 21.16 123.296 21.28 122.48 21.28C120.512 21.28 119.348 20.044 119.348 18.112C119.348 16.192 120.536 14.74 122.324 14.74C123.92 14.74 124.94 15.928 124.94 17.728C124.94 17.98 124.928 18.196 124.88 18.364Z" fill="black"/>
<path fill-rule="evenodd" clip-rule="evenodd" d="M133.4 15.7839C132.392 15.7839 131.744 16.7319 131.744 18.0399C131.744 19.3359 132.404 20.2719 133.388 20.2719C134.372 20.2719 135.032 19.2639 135.032 18.0039C135.02 16.7319 134.384 15.7839 133.4 15.7839ZM133.34 21.3159C131.504 21.3159 130.316 19.9479 130.316 18.0879C130.316 16.1439 131.528 14.7639 133.448 14.7639C135.26 14.7639 136.472 16.0719 136.472 17.9799C136.472 19.9359 135.224 21.3159 133.34 21.3159Z" fill="black"/>
<path fill-rule="evenodd" clip-rule="evenodd" d="M143.973 21.172H142.581V17.56C142.581 16.444 142.149 15.892 141.309 15.892C140.481 15.892 139.917 16.6 139.917 17.428V21.16H138.525V16.684C138.525 16.132 138.513 15.532 138.477 14.884H139.701L139.761 15.856H139.797C140.169 15.184 140.937 14.752 141.789 14.752C143.109 14.752 143.973 15.76 143.973 17.404V21.172Z" fill="black"/>
<path fill-rule="evenodd" clip-rule="evenodd" d="M153.105 15.94H151.569V18.988C151.569 19.768 151.845 20.152 152.385 20.152C152.625 20.152 152.841 20.128 153.009 20.092L153.045 21.148C152.769 21.256 152.409 21.304 151.965 21.304C150.861 21.304 150.213 20.692 150.213 19.108V15.94H149.301V14.896H150.213V13.744L151.581 13.324V14.884H153.117V15.94" fill="black"/>
<path fill-rule="evenodd" clip-rule="evenodd" d="M160.496 21.1719H159.104V17.5839C159.104 16.4559 158.672 15.8919 157.832 15.8919C157.112 15.8919 156.44 16.3839 156.44 17.3799V21.1599H155.048V12.0039H156.44V15.7719H156.464C156.908 15.0879 157.532 14.7519 158.348 14.7519C159.68 14.7519 160.496 15.7839 160.496 17.4279V21.1719Z" fill="black"/>
<path fill-rule="evenodd" clip-rule="evenodd" d="M166.352 17.368C166.352 16.396 165.86 15.712 164.972 15.712C164.168 15.712 163.532 16.408 163.448 17.368H166.352ZM167.624 18.364H163.436C163.46 19.552 164.252 20.224 165.416 20.224C166.04 20.224 166.604 20.116 167.108 19.924L167.324 20.896C166.736 21.16 166.04 21.28 165.224 21.28C163.256 21.28 162.092 20.044 162.092 18.112C162.092 16.192 163.28 14.74 165.068 14.74C166.664 14.74 167.684 15.928 167.684 17.728C167.684 17.98 167.672 18.196 167.624 18.364Z" fill="black"/>
</g>
</svg>
