<svg width="1404" height="428" viewBox="0 0 1404 428" fill="none" xmlns="http://www.w3.org/2000/svg">
<g filter="url(#filter0_d_2_29107)">
<g clip-path="url(#clip0_2_29107)">
<rect x="106.231" y="46" width="1191.5" height="216" rx="20" fill="#002887"/>
<g opacity="0.2">
<path d="M1090.6 -87.9212C1080.49 -51.3805 1076.16 -11.1611 1077.98 29.3584C1079.1 54.4265 1083.92 82.6816 1099.28 97.9258C1110.79 109.353 1125.55 110.523 1138.76 107.966C1151.97 105.408 1164.65 99.6201 1178.09 98.85C1191.54 98.0813 1206.65 103.474 1215.66 118.656C1224.18 133.022 1225.27 152.259 1226.97 170.036C1228.67 187.815 1232.43 207.74 1243.55 218.047C1259.31 232.645 1279.78 219.38 1297.25 228.68C1313.81 237.5 1323.83 264.533 1340.67 271.948C1354.74 278.148 1368.59 268.603 1380.62 259.235C1393.16 249.467 1405.66 239.608 1418.12 229.656" stroke="white" stroke-width="2.3"/>
<path d="M1103.62 -112.563C1093.74 -76.8815 1089.5 -37.6101 1091.27 1.95552C1092.37 26.4332 1097.07 54.0223 1112.08 68.9064C1123.33 80.0625 1137.76 81.2037 1150.67 78.7031C1163.58 76.2053 1175.97 70.5507 1189.11 69.7979C1202.26 69.045 1217.02 74.3098 1225.83 89.1308C1234.16 103.159 1235.21 121.942 1236.87 139.301C1238.53 156.66 1242.2 176.114 1253.08 186.179C1268.48 200.43 1288.49 187.475 1305.56 196.553C1321.74 205.164 1331.54 231.558 1347.99 238.798C1361.74 244.848 1375.28 235.527 1387.04 226.378C1399.3 216.838 1411.52 207.21 1423.7 197.492" stroke="white" stroke-width="2.3"/>
<path d="M1114.76 -136.941C1105.07 -101.994 1100.91 -63.5349 1102.64 -24.7871C1103.71 -0.815282 1108.31 26.2028 1123.03 40.7771C1134.05 51.7002 1148.2 52.8155 1160.85 50.3662C1173.51 47.9168 1185.65 42.3794 1198.53 41.6403C1211.42 40.9012 1225.89 46.0547 1234.52 60.5689C1242.68 74.3056 1243.71 92.7008 1245.34 109.701C1246.96 126.7 1250.56 145.752 1261.22 155.607C1276.31 169.562 1295.92 156.872 1312.65 165.762C1328.52 174.193 1338.12 200.039 1354.24 207.127C1367.72 213.051 1380.99 203.92 1392.52 194.958C1404.54 185.615 1416.52 176.184 1428.46 166.664" stroke="white" stroke-width="2.3"/>
<path d="M1126.61 -162.76C1117.14 -128.673 1113.07 -91.1592 1114.76 -53.3666C1115.8 -29.9851 1120.29 -3.63302 1134.65 10.5797C1145.42 21.2327 1159.23 22.3194 1171.58 19.9283C1183.94 17.5371 1195.8 12.1333 1208.38 11.4116C1220.96 10.6886 1235.09 15.7123 1243.51 29.8685C1251.48 43.2663 1252.49 61.2073 1254.07 77.7882C1255.66 94.3705 1259.16 112.951 1269.57 122.562C1284.3 136.17 1303.46 123.791 1319.79 132.458C1335.28 140.679 1344.64 165.888 1360.39 172.799C1373.55 178.575 1386.51 169.667 1397.76 160.925C1409.5 151.81 1421.2 142.609 1432.86 133.322" stroke="white" stroke-width="2.3"/>
<path d="M1138.46 -188.579C1129.22 -155.235 1125.27 -118.538 1126.93 -81.5635C1127.95 -58.6906 1132.34 -32.9089 1146.37 -18.9989C1156.87 -8.57424 1170.35 -7.50694 1182.41 -9.84211C1194.47 -12.1761 1206.04 -17.4582 1218.32 -18.1614C1230.59 -18.8633 1244.38 -13.9433 1252.61 -0.0920739C1260.39 13.017 1261.38 30.5691 1262.93 46.7914C1264.48 63.0136 1267.91 81.1925 1278.07 90.5987C1292.45 103.916 1311.14 91.8114 1327.08 100.296C1342.2 108.344 1351.35 133.009 1366.72 139.775C1379.56 145.431 1392.21 136.721 1403.19 128.172C1414.64 119.259 1426.06 110.261 1437.43 101.18" stroke="white" stroke-width="2.3"/>
<path d="M1150.49 -213.082C1141.48 -180.598 1137.62 -144.845 1139.23 -108.827C1140.23 -86.5434 1144.5 -61.4291 1158.18 -47.8804C1168.42 -37.7261 1181.57 -36.6888 1193.33 -38.9643C1205.09 -41.2402 1216.38 -46.3885 1228.35 -47.0745C1240.32 -47.7603 1253.77 -42.97 1261.79 -29.4768C1269.37 -16.7079 1270.33 0.392911 1271.85 16.1954C1273.36 31.998 1276.7 49.7077 1286.6 58.8691C1300.63 71.8411 1318.85 60.0459 1334.4 68.3098C1349.15 76.1472 1358.06 100.174 1373.05 106.763C1385.57 112.271 1397.91 103.784 1408.62 95.4538C1419.79 86.7686 1430.92 78.0022 1442.02 69.1532" stroke="white" stroke-width="2.3"/>
<path d="M1163.51 -237.724C1154.73 -206.099 1150.96 -171.294 1152.52 -136.23C1153.49 -114.537 1157.65 -90.0884 1170.98 -76.9C1180.96 -67.0169 1193.77 -66.0085 1205.24 -68.2259C1216.7 -70.4446 1227.7 -75.4567 1239.37 -76.1266C1251.03 -76.7964 1264.14 -72.1344 1271.95 -59.0007C1279.35 -46.5706 1280.28 -29.9253 1281.75 -14.5411C1283.22 0.843308 1286.47 18.0835 1296.13 27.0004C1309.8 39.6269 1327.56 28.141 1342.71 36.1835C1357.08 43.8112 1365.77 67.1998 1380.37 73.6121C1392.58 78.9715 1404.6 70.7081 1415.04 62.5968C1425.93 54.1409 1436.78 45.6039 1447.59 36.9882" stroke="white" stroke-width="2.3"/>
<path d="M1175.36 -263.543C1166.81 -232.662 1163.16 -198.672 1164.69 -164.427C1165.64 -143.242 1169.71 -119.363 1182.69 -106.48C1192.42 -96.8239 1204.9 -95.8334 1216.06 -97.9962C1227.22 -100.156 1237.94 -105.049 1249.3 -105.698C1260.67 -106.348 1273.44 -101.791 1281.05 -88.9613C1288.26 -76.82 1289.17 -60.5635 1290.61 -45.5379C1292.05 -30.5137 1295.22 -13.6755 1304.63 -4.96395C1317.95 7.37257 1335.25 -3.83822 1350.01 4.02165C1364.01 11.4751 1372.48 34.3214 1386.7 40.5884C1398.59 45.8269 1410.3 37.7614 1420.47 29.8436C1431.07 21.5892 1441.63 13.2562 1452.17 4.84569" stroke="white" stroke-width="2.3"/>
</g>
</g>
</g>
<defs>
<filter id="filter0_d_2_29107" x="0.230957" y="0" width="1403.5" height="428" filterUnits="userSpaceOnUse" color-interpolation-filters="sRGB">
<feFlood flood-opacity="0" result="BackgroundImageFix"/>
<feColorMatrix in="SourceAlpha" type="matrix" values="0 0 0 0 0 0 0 0 0 0 0 0 0 0 0 0 0 0 127 0" result="hardAlpha"/>
<feMorphology radius="14" operator="erode" in="SourceAlpha" result="effect1_dropShadow_2_29107"/>
<feOffset dy="60"/>
<feGaussianBlur stdDeviation="60"/>
<feColorMatrix type="matrix" values="0 0 0 0 0 0 0 0 0 0 0 0 0 0 0 0 0 0 0.09 0"/>
<feBlend mode="normal" in2="BackgroundImageFix" result="effect1_dropShadow_2_29107"/>
<feBlend mode="normal" in="SourceGraphic" in2="effect1_dropShadow_2_29107" result="shape"/>
</filter>
<clipPath id="clip0_2_29107">
<rect x="106.231" y="46" width="1191.5" height="216" rx="20" fill="white"/>
</clipPath>
</defs>
</svg>
