<svg width="204" height="60" viewBox="0 0 204 60" fill="none" xmlns="http://www.w3.org/2000/svg">
<mask id="mask0_2_29154" style="mask-type:luminance" maskUnits="userSpaceOnUse" x="0" y="0" width="204" height="60">
<path fill-rule="evenodd" clip-rule="evenodd" d="M0.630371 0H203.13V59.9999H0.630371V0Z" fill="white"/>
</mask>
<g mask="url(#mask0_2_29154)">
<path fill-rule="evenodd" clip-rule="evenodd" d="M195.63 60H8.13037C3.93037 60 0.630371 56.7 0.630371 52.5V7.5C0.630371 3.3 3.93037 0 8.13037 0H195.63C199.83 0 203.13 3.3 203.13 7.5V52.5C203.13 56.7 199.83 60 195.63 60" fill="black"/>
</g>
<path fill-rule="evenodd" clip-rule="evenodd" d="M114.03 19.5001V10.5001H115.38L119.73 17.5501V10.5001H120.93V19.5001H119.73L115.08 12.1501V19.5001H114.03ZM105.33 17.5501C105.93 18.1501 106.83 18.6001 107.73 18.6001C108.63 18.6001 109.53 18.3001 110.13 17.5501C110.73 16.9501 111.18 16.0501 111.18 15.0001C111.18 13.9501 110.88 13.0501 110.13 12.4501C109.53 11.8501 108.63 11.4001 107.73 11.4001C106.83 11.4001 105.93 11.7001 105.33 12.4501C104.73 13.0501 104.28 13.9501 104.28 15.0001C104.28 16.0501 104.58 16.9501 105.33 17.5501V17.5501ZM111.03 18.3001C110.13 19.2001 109.08 19.6501 107.73 19.6501C106.38 19.6501 105.33 19.2001 104.43 18.3001C103.53 17.4001 103.08 16.3501 103.08 15.0001C103.08 13.6501 103.53 12.6001 104.43 11.7001C105.33 10.8001 106.38 10.3501 107.73 10.3501C109.08 10.3501 110.13 10.8001 111.03 11.7001C111.93 12.6001 112.38 13.6501 112.38 15.0001C112.38 16.3501 111.93 17.4001 111.03 18.3001V18.3001ZM96.7805 19.5001H95.5805V11.5501H93.0305V10.5001H99.1805V11.5501H96.6305V19.5001H96.7805ZM90.4805 19.5001H91.6805V10.5001H90.4805V19.5001ZM83.5805 19.5001H82.3805V11.5501H79.8305V10.5001H86.1305V11.5501H83.5805V19.5001ZM78.6305 11.5501H74.5805V14.4001H78.3305V15.4501H74.5805V18.3001H78.6305V19.5001H73.3805V10.5001H78.6305V11.5501ZM71.7305 15.3001C71.7305 16.5001 71.4305 17.5501 70.6805 18.3001C69.7805 19.2001 68.7305 19.6501 67.3805 19.6501C66.0305 19.6501 64.9805 19.2001 64.0805 18.3001C63.1805 17.4001 62.7305 16.3501 62.7305 15.0001C62.7305 13.6501 63.1805 12.6001 64.0805 11.7001C64.9805 10.8001 66.0305 10.3501 67.3805 10.3501C67.9805 10.3501 68.5805 10.5001 69.1805 10.8001C69.7805 11.1001 70.2305 11.4001 70.5305 11.8501L69.7805 12.6001C69.1805 11.8501 68.4305 11.5501 67.3805 11.5501C66.4805 11.5501 65.5805 11.8501 64.9805 12.6001C64.2305 13.2001 63.9305 14.1001 63.9305 15.1501C63.9305 16.2001 64.2305 17.1001 64.9805 17.7001C65.7305 18.3001 66.4805 18.7501 67.3805 18.7501C68.4305 18.7501 69.1805 18.4501 69.9305 17.7001C70.3805 17.2501 70.6805 16.6501 70.6805 15.9001H67.3805V14.7001H71.7305V15.3001Z" fill="white"/>
<path d="M114.03 19.5001H114.003V19.5271H114.03V19.5001ZM114.03 10.5001V10.4731H114.003V10.5001H114.03ZM115.38 10.5001L115.403 10.4859L115.396 10.4731H115.38V10.5001ZM119.73 17.5501L119.707 17.5643L119.757 17.6453V17.5501H119.73ZM119.73 10.5001V10.4731H119.703V10.5001H119.73ZM120.93 10.5001H120.957V10.4731H120.93V10.5001ZM120.93 19.5001V19.5271H120.957V19.5001H120.93ZM119.73 19.5001L119.708 19.5145L119.716 19.5271H119.73V19.5001ZM115.08 12.1501L115.103 12.1357L115.053 12.0569V12.1501H115.08ZM115.08 19.5001V19.5271H115.107V19.5001H115.08ZM105.33 17.5501L105.35 17.5309L105.347 17.529L105.33 17.5501ZM110.13 17.5501L110.111 17.5309L110.109 17.5332L110.13 17.5501ZM110.13 12.4501L110.111 12.4693L110.114 12.4712L110.13 12.4501ZM105.33 12.4501L105.35 12.4693L105.352 12.467L105.33 12.4501ZM95.5805 19.5001H95.5535V19.5271H95.5805V19.5001ZM95.5805 11.5501H95.6075V11.5231H95.5805V11.5501ZM93.0305 11.5501H93.0035V11.5771H93.0305V11.5501ZM93.0305 10.5001V10.4731H93.0035V10.5001H93.0305ZM99.1805 10.5001H99.2075V10.4731H99.1805V10.5001ZM99.1805 11.5501V11.5771H99.2075V11.5501H99.1805ZM96.6305 11.5501V11.5231H96.6035V11.5501H96.6305ZM96.6305 19.5001H96.6035V19.5271H96.6305V19.5001ZM90.4805 19.5001H90.4535V19.5271H90.4805V19.5001ZM91.6805 19.5001V19.5271H91.7075V19.5001H91.6805ZM91.6805 10.5001H91.7075V10.4731H91.6805V10.5001ZM90.4805 10.5001V10.4731H90.4535V10.5001H90.4805ZM83.5805 19.5001V19.5271H83.6075V19.5001H83.5805ZM82.3805 19.5001H82.3535V19.5271H82.3805V19.5001ZM82.3805 11.5501H82.4075V11.5231H82.3805V11.5501ZM79.8305 11.5501H79.8035V11.5771H79.8305V11.5501ZM79.8305 10.5001V10.4731H79.8035V10.5001H79.8305ZM86.1305 10.5001H86.1575V10.4731H86.1305V10.5001ZM86.1305 11.5501V11.5771H86.1575V11.5501H86.1305ZM83.5805 11.5501V11.5231H83.5535V11.5501H83.5805ZM78.6305 11.5501V11.5771H78.6575V11.5501H78.6305ZM74.5805 11.5501V11.5231H74.5535V11.5501H74.5805ZM74.5805 14.4001H74.5535V14.4271H74.5805V14.4001ZM78.3305 14.4001H78.3575V14.3731H78.3305V14.4001ZM78.3305 15.4501V15.4771H78.3575V15.4501H78.3305ZM74.5805 15.4501V15.4231H74.5535V15.4501H74.5805ZM74.5805 18.3001H74.5535V18.3271H74.5805V18.3001ZM78.6305 18.3001H78.6575V18.2731H78.6305V18.3001ZM78.6305 19.5001V19.5271H78.6575V19.5001H78.6305ZM73.3805 19.5001H73.3535V19.5271H73.3805V19.5001ZM73.3805 10.5001V10.4731H73.3535V10.5001H73.3805ZM78.6305 10.5001H78.6575V10.4731H78.6305V10.5001ZM70.5305 11.8501L70.5496 11.8692L70.5652 11.8535L70.5529 11.8351L70.5305 11.8501ZM69.7805 12.6001L69.7594 12.617L69.7782 12.6405L69.7996 12.6192L69.7805 12.6001ZM64.9805 12.6001L64.9978 12.6217L65.0016 12.617L64.9805 12.6001ZM70.6805 15.9001H70.7075V15.8731H70.6805V15.9001ZM67.3805 15.9001H67.3535V15.9271H67.3805V15.9001ZM67.3805 14.7001V14.6731H67.3535V14.7001H67.3805ZM71.7305 14.7001H71.7575V14.6731H71.7305V14.7001ZM114.057 19.5001V10.5001H114.003V19.5001H114.057ZM114.03 10.5271H115.38V10.4731H114.03V10.5271ZM115.357 10.5143L119.707 17.5643L119.753 17.5359L115.403 10.4859L115.357 10.5143ZM119.757 17.5501V10.5001H119.703V17.5501H119.757ZM119.73 10.5271H120.93V10.4731H119.73V10.5271ZM120.903 10.5001V19.5001H120.957V10.5001H120.903ZM120.93 19.4731H119.73V19.5271H120.93V19.4731ZM119.753 19.4857L115.103 12.1357L115.058 12.1645L119.708 19.5145L119.753 19.4857ZM115.053 12.1501V19.5001H115.107V12.1501H115.053ZM115.08 19.4731H114.03V19.5271H115.08V19.4731ZM105.311 17.5692C105.915 18.1733 106.822 18.6271 107.73 18.6271V18.5731C106.839 18.5731 105.945 18.1269 105.35 17.531L105.311 17.5692ZM107.73 18.6271C108.636 18.6271 109.545 18.3251 110.152 17.567L110.109 17.5332C109.516 18.2751 108.625 18.5731 107.73 18.5731V18.6271ZM110.15 17.5692C110.754 16.9646 111.207 16.0579 111.207 15.0001H111.153C111.153 16.0423 110.707 16.9356 110.111 17.531L110.15 17.5692ZM111.207 15.0001C111.207 13.9451 110.906 13.0359 110.147 12.429L110.114 12.4712C110.855 13.0643 111.153 13.9551 111.153 15.0001H111.207ZM110.15 12.431C109.545 11.8269 108.639 11.3731 107.73 11.3731V11.4271C108.622 11.4271 109.515 11.8733 110.111 12.4692L110.15 12.431ZM107.73 11.3731C106.825 11.3731 105.916 11.6751 105.309 12.4332L105.352 12.467C105.945 11.7251 106.836 11.4271 107.73 11.4271V11.3731ZM105.311 12.431C104.707 13.0356 104.253 13.9423 104.253 15.0001H104.307C104.307 13.9579 104.754 13.0646 105.35 12.4692L105.311 12.431ZM104.253 15.0001C104.253 16.0551 104.555 16.9643 105.314 17.5712L105.347 17.529C104.606 16.9359 104.307 16.0451 104.307 15.0001H104.253ZM111.011 18.281C110.116 19.1759 109.073 19.6231 107.73 19.6231V19.6771C109.088 19.6771 110.144 19.2243 111.05 18.3192L111.011 18.281ZM107.73 19.6231C106.388 19.6231 105.344 19.1759 104.45 18.281L104.411 18.3192C105.316 19.2243 106.373 19.6771 107.73 19.6771V19.6231ZM104.45 18.281C103.555 17.3861 103.107 16.343 103.107 15.0001H103.053C103.053 16.3572 103.506 17.4141 104.411 18.3192L104.45 18.281ZM103.107 15.0001C103.107 13.6572 103.555 12.6141 104.45 11.7192L104.411 11.681C103.506 12.5861 103.053 13.643 103.053 15.0001H103.107ZM104.45 11.7192C105.344 10.8243 106.388 10.3771 107.73 10.3771V10.3231C106.373 10.3231 105.316 10.7759 104.411 11.681L104.45 11.7192ZM107.73 10.3771C109.073 10.3771 110.116 10.8243 111.011 11.7192L111.05 11.681C110.144 10.7759 109.088 10.3231 107.73 10.3231V10.3771ZM111.011 11.7192C111.906 12.6141 112.353 13.6572 112.353 15.0001H112.407C112.407 13.643 111.955 12.5861 111.05 11.681L111.011 11.7192ZM112.353 15.0001C112.353 16.343 111.906 17.3861 111.011 18.281L111.05 18.3192C111.955 17.4141 112.407 16.3572 112.407 15.0001H112.353ZM96.7805 19.4731H95.5805V19.5271H96.7805V19.4731ZM95.6075 19.5001V11.5501H95.5535V19.5001H95.6075ZM95.5805 11.5231H93.0305V11.5771H95.5805V11.5231ZM93.0575 11.5501V10.5001H93.0035V11.5501H93.0575ZM93.0305 10.5271H99.1805V10.4731H93.0305V10.5271ZM99.1535 10.5001V11.5501H99.2075V10.5001H99.1535ZM99.1805 11.5231H96.6305V11.5771H99.1805V11.5231ZM96.6035 11.5501V19.5001H96.6575V11.5501H96.6035ZM96.6305 19.5271H96.7805V19.4731H96.6305V19.5271ZM90.4805 19.5271H91.6805V19.4731H90.4805V19.5271ZM91.7075 19.5001V10.5001H91.6535V19.5001H91.7075ZM91.6805 10.4731H90.4805V10.5271H91.6805V10.4731ZM90.4535 10.5001V19.5001H90.5075V10.5001H90.4535ZM83.5805 19.4731H82.3805V19.5271H83.5805V19.4731ZM82.4075 19.5001V11.5501H82.3535V19.5001H82.4075ZM82.3805 11.5231H79.8305V11.5771H82.3805V11.5231ZM79.8575 11.5501V10.5001H79.8035V11.5501H79.8575ZM79.8305 10.5271H86.1305V10.4731H79.8305V10.5271ZM86.1035 10.5001V11.5501H86.1575V10.5001H86.1035ZM86.1305 11.5231H83.5805V11.5771H86.1305V11.5231ZM83.5535 11.5501V19.5001H83.6075V11.5501H83.5535ZM78.6305 11.5231H74.5805V11.5771H78.6305V11.5231ZM74.5535 11.5501V14.4001H74.6075V11.5501H74.5535ZM74.5805 14.4271H78.3305V14.3731H74.5805V14.4271ZM78.3035 14.4001V15.4501H78.3575V14.4001H78.3035ZM78.3305 15.4231H74.5805V15.4771H78.3305V15.4231ZM74.5535 15.4501V18.3001H74.6075V15.4501H74.5535ZM74.5805 18.3271H78.6305V18.2731H74.5805V18.3271ZM78.6035 18.3001V19.5001H78.6575V18.3001H78.6035ZM78.6305 19.4731H73.3805V19.5271H78.6305V19.4731ZM73.4075 19.5001V10.5001H73.3535V19.5001H73.4075ZM73.3805 10.5271H78.6305V10.4731H73.3805V10.5271ZM78.6035 10.5001V11.5501H78.6575V10.5001H78.6035ZM71.7035 15.3001C71.7035 16.4959 71.4045 17.5379 70.6614 18.281L70.6996 18.3192C71.4564 17.5623 71.7575 16.5043 71.7575 15.3001H71.7035ZM70.6614 18.281C69.7664 19.1759 68.7233 19.6231 67.3805 19.6231V19.6771C68.7376 19.6771 69.7945 19.2243 70.6996 18.3192L70.6614 18.281ZM67.3805 19.6231C66.0376 19.6231 64.9945 19.1759 64.0996 18.281L64.0614 18.3192C64.9665 19.2243 66.0233 19.6771 67.3805 19.6771V19.6231ZM64.0996 18.281C63.2046 17.3861 62.7575 16.343 62.7575 15.0001H62.7035C62.7035 16.3572 63.1563 17.4141 64.0614 18.3192L64.0996 18.281ZM62.7575 15.0001C62.7575 13.6572 63.2046 12.6141 64.0996 11.7192L64.0614 11.681C63.1563 12.5861 62.7035 13.643 62.7035 15.0001H62.7575ZM64.0996 11.7192C64.9945 10.8243 66.0376 10.3771 67.3805 10.3771V10.3231C66.0233 10.3231 64.9665 10.7759 64.0614 11.681L64.0996 11.7192ZM67.3805 10.3771C67.9758 10.3771 68.5717 10.5259 69.1684 10.8242L69.1925 10.7759C68.5892 10.4743 67.9851 10.3231 67.3805 10.3231V10.3771ZM69.1684 10.8242C69.7672 11.1237 70.212 11.4211 70.508 11.8651L70.5529 11.8351C70.2489 11.3791 69.7937 11.0765 69.1925 10.7759L69.1684 10.8242ZM70.5114 11.831L69.7614 12.581L69.7996 12.6192L70.5496 11.8692L70.5114 11.831ZM69.8016 12.5832C69.1954 11.8255 68.4369 11.5231 67.3805 11.5231V11.5771C68.4241 11.5771 69.1655 11.8747 69.7594 12.617L69.8016 12.5832ZM67.3805 11.5231C66.4748 11.5231 65.5659 11.8251 64.9594 12.5832L65.0016 12.617C65.595 11.8751 66.4861 11.5771 67.3805 11.5771V11.5231ZM64.9636 12.579C64.205 13.1859 63.9035 14.0951 63.9035 15.1501H63.9575C63.9575 14.1051 64.2559 13.2143 64.9973 12.6212L64.9636 12.579ZM63.9035 15.1501C63.9035 16.2051 64.205 17.1143 64.9636 17.7212L64.9973 17.679C64.2559 17.0859 63.9575 16.1951 63.9575 15.1501H63.9035ZM64.9636 17.7212C65.7147 18.3221 66.4709 18.7771 67.3805 18.7771V18.7231C66.4901 18.7231 65.7462 18.2781 64.9973 17.679L64.9636 17.7212ZM67.3805 18.7771C67.9081 18.7771 68.3617 18.7017 68.7782 18.5313C69.1947 18.361 69.5726 18.0962 69.9496 17.7192L69.9114 17.681C69.5384 18.054 69.1663 18.3142 68.7577 18.4814C68.3492 18.6485 67.9028 18.7231 67.3805 18.7231V18.7771ZM69.9496 17.7192C70.4041 17.2647 70.7075 16.658 70.7075 15.9001H70.6535C70.6535 16.6422 70.3569 17.2355 69.9114 17.681L69.9496 17.7192ZM70.6805 15.8731H67.3805V15.9271H70.6805V15.8731ZM67.4075 15.9001V14.7001H67.3535V15.9001H67.4075ZM67.3805 14.7271H71.7305V14.6731H67.3805V14.7271ZM71.7035 14.7001V15.3001H71.7575V14.7001H71.7035Z" fill="white"/>
<mask id="mask1_2_29154" style="mask-type:luminance" maskUnits="userSpaceOnUse" x="0" y="0" width="204" height="60">
<path fill-rule="evenodd" clip-rule="evenodd" d="M0.630371 60H203.13V0H0.630371V60Z" fill="white"/>
</mask>
<g mask="url(#mask1_2_29154)">
<path fill-rule="evenodd" clip-rule="evenodd" d="M160.98 44.9999H163.83V26.2499H160.98V44.9999ZM186.18 32.9999L183.03 41.0999H182.88L179.58 32.9999H176.58L181.53 44.3999L178.68 50.6999H181.53L189.18 32.9999H186.18ZM170.43 42.8999C169.53 42.8999 168.18 42.4499 168.18 41.2499C168.18 39.7499 169.83 39.2999 171.18 39.2999C172.38 39.2999 172.98 39.5999 173.73 39.8999C173.43 41.6999 171.93 42.8999 170.43 42.8999V42.8999ZM170.73 32.5499C168.63 32.5499 166.53 33.4499 165.78 35.3999L168.33 36.4499C168.93 35.3999 169.83 35.0999 170.88 35.0999C172.38 35.0999 173.73 35.9999 173.88 37.4999V37.6499C173.43 37.3499 172.23 36.8999 171.03 36.8999C168.33 36.8999 165.63 38.3999 165.63 41.0999C165.63 43.6499 167.88 45.2999 170.28 45.2999C172.23 45.2999 173.13 44.3999 173.88 43.4999H174.03V44.9999H176.73V37.7999C176.43 34.4999 173.88 32.5499 170.73 32.5499V32.5499ZM153.48 35.2499H149.43V28.7999H153.48C155.58 28.7999 156.78 30.5999 156.78 31.9499C156.63 33.5999 155.43 35.2499 153.48 35.2499V35.2499ZM153.33 26.2499H146.58V44.9999H149.43V37.9499H153.33C156.48 37.9499 159.48 35.6999 159.48 32.0999C159.48 28.4999 156.48 26.2499 153.33 26.2499V26.2499ZM116.73 42.8999C114.78 42.8999 113.13 41.2499 113.13 38.9999C113.13 36.7499 114.78 35.0999 116.73 35.0999C118.68 35.0999 120.18 36.7499 120.18 38.9999C120.18 41.2499 118.68 42.8999 116.73 42.8999V42.8999ZM120.03 34.0499C119.28 33.2999 118.08 32.5499 116.58 32.5499C113.43 32.5499 110.43 35.3999 110.43 38.9999C110.43 42.5999 113.28 45.2999 116.58 45.2999C118.08 45.2999 119.28 44.5499 119.88 43.7999H120.03V44.6999C120.03 47.0999 118.68 48.4499 116.58 48.4499C114.93 48.4499 113.73 47.2499 113.43 46.1999L111.03 47.2499C111.78 48.8999 113.58 50.9999 116.73 50.9999C120.03 50.9999 122.73 49.0499 122.73 44.3999V32.9999H120.03V34.0499ZM124.53 44.9999H127.38V26.2499H124.53V44.9999ZM131.58 38.8499C131.58 36.4499 133.53 35.0999 134.88 35.0999C135.93 35.0999 136.98 35.6999 137.28 36.4499L131.58 38.8499ZM140.28 36.7499C139.68 35.2499 138.18 32.6999 134.88 32.6999C131.58 32.6999 128.88 35.2499 128.88 39.1499C128.88 42.7499 131.58 45.5999 135.18 45.5999C138.03 45.5999 139.83 43.7999 140.43 42.7499L138.33 41.2499C137.58 42.2999 136.68 43.0499 135.18 43.0499C133.68 43.0499 132.78 42.4499 132.03 41.0999L140.58 37.4999L140.28 36.7499ZM72.1803 34.6499V37.3499H78.6303C78.4803 38.8499 77.8803 40.0499 77.1303 40.7999C76.2303 41.6999 74.7303 42.7499 72.1803 42.7499C68.1303 42.7499 65.1303 39.5999 65.1303 35.5499C65.1303 31.4999 68.2803 28.3499 72.1803 28.3499C74.2803 28.3499 75.9303 29.2499 77.1303 30.2999L79.0803 28.3499C77.4303 26.8499 75.3303 25.6499 72.3303 25.6499C66.9303 25.6499 62.2803 30.1499 62.2803 35.5499C62.2803 40.9499 66.9303 45.4499 72.3303 45.4499C75.3303 45.4499 77.4303 44.5499 79.2303 42.5999C81.0303 40.7999 81.6303 38.2499 81.6303 36.2999C81.6303 35.6999 81.6303 35.0999 81.4803 34.6499H72.1803ZM88.8303 42.8999C86.8803 42.8999 85.2303 41.2499 85.2303 38.9999C85.2303 36.7499 86.8803 35.0999 88.8303 35.0999C90.7803 35.0999 92.4303 36.5999 92.4303 38.9999C92.4303 41.2499 90.7803 42.8999 88.8303 42.8999V42.8999ZM88.8303 32.6999C85.2303 32.6999 82.3803 35.3999 82.3803 39.1499C82.3803 42.7499 85.2303 45.5999 88.8303 45.5999C92.4303 45.5999 95.2803 42.8999 95.2803 39.1499C95.2803 35.2499 92.4303 32.6999 88.8303 32.6999V32.6999ZM102.78 42.8999C100.83 42.8999 99.1803 41.2499 99.1803 38.9999C99.1803 36.7499 100.83 35.0999 102.78 35.0999C104.73 35.0999 106.38 36.5999 106.38 38.9999C106.38 41.2499 104.73 42.8999 102.78 42.8999V42.8999ZM102.78 32.6999C99.1803 32.6999 96.3303 35.3999 96.3303 39.1499C96.3303 42.7499 99.1803 45.5999 102.78 45.5999C106.38 45.5999 109.23 42.8999 109.23 39.1499C109.23 35.2499 106.38 32.6999 102.78 32.6999V32.6999Z" fill="white"/>
</g>
<mask id="mask2_2_29154" style="mask-type:luminance" maskUnits="userSpaceOnUse" x="15" y="11" width="21" height="38">
<path fill-rule="evenodd" clip-rule="evenodd" d="M15.6304 13.3499V46.4999C15.6304 47.4002 15.9304 48.1499 16.3804 48.5999L16.5304 48.7502L35.1304 30.1502V29.8499L16.2304 11.2502C15.7804 11.6999 15.6304 12.4499 15.6304 13.3499Z" fill="white"/>
</mask>
<g mask="url(#mask2_2_29154)">
<path fill-rule="evenodd" clip-rule="evenodd" d="M15.6304 13.3499V46.4999C15.6304 47.4002 15.9304 48.1499 16.3804 48.5999L16.5304 48.7502L35.1304 30.1502V29.8499L16.2304 11.2502C15.7804 11.6999 15.6304 12.4499 15.6304 13.3499Z" fill="#32BBFF"/>
</g>
<mask id="mask3_2_29154" style="mask-type:luminance" maskUnits="userSpaceOnUse" x="34" y="23" width="17" height="14">
<path fill-rule="evenodd" clip-rule="evenodd" d="M34.9805 29.85V30.3L41.1305 36.45L48.6305 32.4C50.7305 31.2 50.7305 29.25 48.6305 28.0497L41.2805 23.85L41.1305 23.6997L34.9805 29.85Z" fill="white"/>
</mask>
<g mask="url(#mask3_2_29154)">
<path fill-rule="evenodd" clip-rule="evenodd" d="M34.9805 29.85V30.3L41.1305 36.45L48.6305 32.4C50.7305 31.2 50.7305 29.25 48.6305 28.0497L41.2805 23.85L41.1305 23.6997L34.9805 29.85Z" fill="#FFD500"/>
</g>
<mask id="mask4_2_29154" style="mask-type:luminance" maskUnits="userSpaceOnUse" x="16" y="30" width="26" height="20">
<path fill-rule="evenodd" clip-rule="evenodd" d="M16.2305 48.7503C16.9805 49.5 18.0305 49.5 19.3805 48.9L41.2805 36.3L34.9805 30L16.2305 48.7503Z" fill="white"/>
</mask>
<g mask="url(#mask4_2_29154)">
<path fill-rule="evenodd" clip-rule="evenodd" d="M16.2305 48.7503C16.9805 49.5 18.0305 49.5 19.3805 48.9L41.2805 36.3L34.9805 30L16.2305 48.7503Z" fill="url(#paint0_linear_2_29154)"/>
</g>
<mask id="mask5_2_29154" style="mask-type:luminance" maskUnits="userSpaceOnUse" x="16" y="10" width="26" height="20">
<path fill-rule="evenodd" clip-rule="evenodd" d="M16.2305 11.4L34.9805 30L41.2805 23.7L19.3805 11.2503C18.7721 10.9122 18.2249 10.7571 17.7386 10.7571C17.1452 10.7568 16.6427 10.9878 16.2305 11.4Z" fill="white"/>
</mask>
<g mask="url(#mask5_2_29154)">
<path fill-rule="evenodd" clip-rule="evenodd" d="M16.2305 11.4L34.9805 30L41.2805 23.7L19.3805 11.2503C18.7721 10.9122 18.2249 10.7571 17.7386 10.7571C17.1452 10.7568 16.6427 10.9878 16.2305 11.4Z" fill="#29CC5E"/>
</g>
<path fill-rule="evenodd" clip-rule="evenodd" d="M41.1305 36.1501L19.3805 48.4501C18.1805 49.2001 17.1305 49.0501 16.3805 48.4501L16.2305 48.6001L16.3805 48.7501C17.1305 49.3501 18.1805 49.5001 19.3805 48.7501L41.1305 36.1501Z" fill="black"/>
<path fill-rule="evenodd" clip-rule="evenodd" d="M48.6304 31.95L41.1304 36.15L41.2804 36.3L48.6304 32.1C49.6804 31.5 50.1304 30.75 50.1304 30C50.1304 30.75 49.5304 31.35 48.6304 31.95ZM16.2304 48.45C15.7804 48 15.6304 47.25 15.6304 46.35V46.5C15.6304 47.4 15.9304 48.15 16.3804 48.6V48.45H16.2304Z" fill="black"/>
<path fill-rule="evenodd" clip-rule="evenodd" d="M19.3804 11.3999L48.6304 28.0499C49.5304 28.6499 50.1304 29.2499 50.1304 29.9999C50.1304 29.2499 49.6804 28.4999 48.6304 27.8999L19.3804 11.2499C17.2804 10.0499 15.6304 10.9499 15.6304 13.3499V13.4999C15.6304 11.2499 17.2804 10.1999 19.3804 11.3999Z" fill="white"/>
<defs>
<linearGradient id="paint0_linear_2_29154" x1="15.7377" y1="20.2538" x2="-8.21017" y2="60.4597" gradientUnits="userSpaceOnUse">
<stop stop-color="#FF3A44"/>
<stop offset="1" stop-color="#C31162"/>
</linearGradient>
</defs>
</svg>
